<svg width="500" height="500" viewBox="0 0 500 500" fill="none" xmlns="http://www.w3.org/2000/svg">
<path d="M403.56 296.715C402.764 295.599 401.712 294.689 400.493 294.061C399.274 293.433 397.923 293.105 396.552 293.103H103.448C102.077 293.105 100.726 293.433 99.5069 294.061C98.288 294.689 97.2365 295.599 96.4398 296.715L53.3363 357.06C52.4166 358.349 51.8694 359.866 51.7547 361.445C51.64 363.023 51.9624 364.603 52.6863 366.011C53.4103 367.419 54.5079 368.6 55.8588 369.426C57.2098 370.251 58.7619 370.688 60.345 370.69H94.8277V482.759C94.8277 487.331 96.6442 491.717 99.8776 494.95C103.111 498.184 107.496 500 112.069 500H387.931C392.504 500 396.889 498.184 400.123 494.95C403.356 491.717 405.173 487.331 405.173 482.759V370.69H439.655C441.238 370.688 442.79 370.251 444.141 369.426C445.492 368.6 446.59 367.419 447.314 366.011C448.038 364.603 448.36 363.023 448.246 361.445C448.131 359.866 447.584 358.349 446.664 357.06L403.56 296.715ZM107.888 310.345H310.836L280.043 353.448H77.095L107.888 310.345ZM112.069 370.69H284.483C285.854 370.688 287.205 370.36 288.424 369.732C289.643 369.104 290.695 368.194 291.492 367.078L318.966 328.621V482.759H112.069V370.69ZM387.931 482.759H336.207V328.621L363.681 367.078C364.478 368.194 365.529 369.104 366.748 369.732C367.967 370.36 369.318 370.688 370.69 370.69H387.931V482.759ZM396.552 353.448H375.129L344.336 310.345H392.112L422.905 353.448H396.552Z" fill="#077B9A"/>
<path d="M243.5 169.828L245.043 172.552C245.615 173.573 245.781 174.772 245.51 175.911C245.238 177.05 244.549 178.045 243.578 178.698C240.664 180.64 238.26 183.252 236.565 186.316C234.87 189.379 233.935 192.804 233.838 196.304C233.741 199.803 234.485 203.275 236.007 206.428C237.529 209.581 239.785 212.322 242.586 214.422L252.026 221.491C253.023 222.271 253.673 223.412 253.834 224.668C253.996 225.923 253.656 227.192 252.888 228.198L242.612 245.638C242.003 246.614 241.596 247.701 241.414 248.837C241.232 249.972 241.279 251.133 241.552 252.25C241.825 253.367 242.32 254.418 243.005 255.342C243.691 256.265 244.555 257.042 245.545 257.626C246.536 258.21 247.633 258.591 248.773 258.745C249.913 258.898 251.072 258.823 252.182 258.522C253.292 258.221 254.33 257.701 255.236 256.992C256.142 256.284 256.897 255.401 257.457 254.397L267.483 237.353C270.584 232.698 271.787 227.032 270.844 221.518C269.902 216.004 266.885 211.059 262.414 207.698L252.931 200.629C252.336 200.184 251.856 199.602 251.532 198.933C251.209 198.263 251.05 197.526 251.07 196.783C251.091 196.039 251.289 195.312 251.649 194.661C252.009 194.01 252.519 193.456 253.138 193.043C257.326 190.22 260.41 186.037 261.868 181.202C263.325 176.366 263.068 171.176 261.138 166.509C277.517 154.31 318.965 118.457 318.965 68.9655C318.965 50.6747 311.699 33.1331 298.766 20.1995C285.832 7.26599 268.291 0 250 0C231.709 0 214.167 7.26599 201.234 20.1995C188.3 33.1331 181.034 50.6747 181.034 68.9655C181.034 124.414 233.009 162.655 243.5 169.828ZM250 17.2414C263.714 17.2551 276.862 22.709 286.559 32.4062C296.257 42.1033 301.71 55.2516 301.724 68.9655C301.724 111.034 263.474 143.207 250 153.25C236.5 143.241 198.276 111.207 198.276 68.9655C198.289 55.2516 203.743 42.1033 213.441 32.4062C223.138 22.709 236.286 17.2551 250 17.2414V17.2414Z" fill="#077B9A"/>
<path d="M250 51.7241C254.573 51.7241 258.958 53.5406 262.192 56.774C265.425 60.0074 267.241 64.3928 267.241 68.9655C267.241 71.2519 268.15 73.4446 269.766 75.0613C271.383 76.678 273.576 77.5862 275.862 77.5862C278.149 77.5862 280.341 76.678 281.958 75.0613C283.575 73.4446 284.483 71.2519 284.483 68.9655C284.483 59.8201 280.85 51.0493 274.383 44.5825C267.916 38.1158 259.145 34.4828 250 34.4828C247.714 34.4828 245.521 35.391 243.904 37.0077C242.288 38.6244 241.379 40.8171 241.379 43.1034C241.379 45.3898 242.288 47.5825 243.904 49.1992C245.521 50.8159 247.714 51.7241 250 51.7241Z" fill="#077B9A"/>
<path d="M431.078 34.4828C381.397 34.4828 358.767 78.2414 358.767 118.905C359.324 142.67 364.845 166.055 374.974 187.56V190.655C374.964 191.823 374.516 192.945 373.717 193.798C372.919 194.651 371.829 195.172 370.664 195.259C367.168 195.478 363.776 196.534 360.773 198.338C357.77 200.142 355.245 202.64 353.409 205.624C351.573 208.607 350.48 211.987 350.223 215.481C349.966 218.974 350.552 222.478 351.931 225.698L356.578 236.56C356.823 237.132 356.949 237.748 356.948 238.371C356.953 239.239 356.712 240.091 356.255 240.829C355.798 241.567 355.142 242.161 354.362 242.543C352.383 243.595 350.892 245.376 350.203 247.508C349.515 249.641 349.684 251.958 350.675 253.968C351.666 255.978 353.401 257.523 355.512 258.276C357.623 259.028 359.944 258.929 361.983 258C366.998 255.521 370.874 251.216 372.814 245.968C374.753 240.721 374.61 234.93 372.414 229.785L367.75 218.966C367.496 218.386 367.362 217.762 367.353 217.129C367.36 215.948 367.813 214.813 368.622 213.952C369.432 213.092 370.537 212.57 371.716 212.491C376.787 212.136 381.577 210.027 385.265 206.528C388.953 203.029 391.31 198.356 391.931 193.31C417.845 189.655 500 172.724 500 103.517C499.91 85.2554 492.623 67.7656 479.72 54.8419C466.817 41.9181 449.339 34.6028 431.078 34.4828V34.4828ZM388.793 176.267C380.847 158.158 376.505 138.675 376.009 118.905C376.009 85.4655 393.043 51.7241 431.078 51.7241C444.775 51.817 457.883 57.3072 467.558 67.0034C477.234 76.6996 482.695 89.8197 482.759 103.517C482.759 158.793 410.216 173.224 388.793 176.267Z" fill="#077B9A"/>
<path d="M448.276 73.5948C446.295 72.4516 443.941 72.1423 441.731 72.7348C439.522 73.3273 437.639 74.7732 436.496 76.7543C435.352 78.7354 435.043 81.0895 435.636 83.2987C436.228 85.5079 437.674 87.3913 439.655 88.5345C442.277 90.0553 444.453 92.2382 445.966 94.8646C447.479 97.4911 448.276 100.469 448.276 103.5C448.275 106.509 447.481 109.465 445.974 112.069C444.912 114.043 444.66 116.352 445.272 118.509C445.885 120.665 447.312 122.498 449.253 123.619C451.194 124.74 453.495 125.061 455.669 124.514C457.842 123.968 459.717 122.596 460.896 120.69C465.466 112.77 466.704 103.361 464.337 94.5291C461.97 85.6976 456.193 78.1676 448.276 73.5948V73.5948Z" fill="#077B9A"/>
<path d="M68.9656 103.448C62.9136 103.448 56.9678 105.038 51.7243 108.06C49.7431 109.204 48.2973 111.087 47.7048 113.296C47.1122 115.505 47.4216 117.859 48.5648 119.841C49.7079 121.822 51.5913 123.267 53.8005 123.86C56.0097 124.453 58.3638 124.143 60.3449 123C64.3338 120.831 69.0031 120.277 73.3889 121.451C77.7748 122.625 81.5423 125.439 83.9139 129.31C85.0931 131.216 86.9683 132.588 89.1419 133.135C91.3155 133.682 93.6166 133.361 95.5574 132.239C97.4981 131.118 98.9259 129.285 99.538 127.129C100.15 124.973 99.8984 122.663 98.8363 120.69C95.7979 115.456 91.4411 111.111 86.2001 108.086C80.9592 105.061 75.017 103.462 68.9656 103.448V103.448Z" fill="#077B9A"/>
<path d="M116.448 230.095C117.519 230.732 118.294 231.767 118.602 232.974C118.911 234.181 118.729 235.462 118.095 236.534C116.701 239.446 115.982 242.634 115.991 245.862C115.993 251.213 117.953 256.379 121.503 260.383C125.053 264.387 129.946 266.952 135.259 267.595L146.991 269.009C148.173 269.172 149.249 269.774 150.005 270.697C150.761 271.619 151.141 272.792 151.069 273.983C151.005 275.113 151.164 276.245 151.538 277.314C151.911 278.383 152.491 279.368 153.245 280.212C154 281.057 154.913 281.745 155.933 282.236C156.952 282.728 158.059 283.014 159.19 283.078H159.681C161.885 283.081 164.006 282.241 165.609 280.729C167.213 279.217 168.176 277.148 168.302 274.948V273.586C168.295 268.24 166.333 263.081 162.785 259.081C159.238 255.081 154.35 252.517 149.043 251.871L137.31 250.457C136.182 250.322 135.142 249.778 134.387 248.928C133.633 248.078 133.216 246.981 133.216 245.845C133.215 245.003 133.438 244.176 133.862 243.448C135.267 240.534 135.989 237.338 135.974 234.103C135.947 230.762 135.156 227.472 133.662 224.484C132.168 221.495 130.01 218.888 127.353 216.862C136.066 196.79 140.787 175.213 141.25 153.336C141.233 112.724 118.603 68.9655 68.9655 68.9655C50.6768 69.0111 33.1512 76.3012 20.2255 89.2398C7.29987 102.178 0.0273079 119.711 0 138C0 213.483 97.7845 226.793 113.672 228.466L116.448 230.095ZM17.2414 138C17.3047 124.295 22.7724 111.168 32.4569 101.471C42.1414 91.7736 55.2607 86.2885 68.9655 86.2069C107 86.2069 124.034 119.948 124.034 153.388C123.514 173.162 119.157 192.646 111.207 210.759C89.7586 207.759 17.2414 193.397 17.2414 138Z" fill="#077B9A"/>
<path d="M293.362 230.672L284.741 265.155C284.189 267.373 284.539 269.719 285.716 271.679C286.893 273.638 288.8 275.05 291.017 275.603C291.7 275.773 292.4 275.86 293.103 275.862C295.025 275.86 296.89 275.215 298.404 274.031C299.917 272.848 300.992 271.192 301.457 269.328L310.078 234.845C310.381 233.737 310.461 232.579 310.311 231.44C310.161 230.301 309.785 229.204 309.205 228.212C308.625 227.22 307.852 226.355 306.933 225.666C306.013 224.977 304.965 224.479 303.851 224.201C302.736 223.923 301.577 223.87 300.441 224.046C299.306 224.223 298.218 224.624 297.24 225.227C296.262 225.83 295.414 226.622 294.747 227.557C294.079 228.492 293.606 229.552 293.353 230.672H293.362Z" fill="#077B9A"/>
<path d="M284.483 189.655C284.483 194.77 286 199.77 288.842 204.023C291.683 208.276 295.722 211.591 300.448 213.549C305.174 215.506 310.374 216.018 315.39 215.02C320.407 214.022 325.015 211.559 328.632 207.942C332.249 204.326 334.712 199.717 335.71 194.701C336.708 189.684 336.196 184.484 334.238 179.758C332.281 175.033 328.966 170.993 324.713 168.152C320.46 165.31 315.46 163.793 310.345 163.793C303.486 163.793 296.908 166.518 292.058 171.368C287.208 176.218 284.483 182.796 284.483 189.655V189.655ZM318.966 189.655C318.966 191.36 318.46 193.027 317.513 194.445C316.566 195.862 315.219 196.967 313.644 197.62C312.069 198.272 310.335 198.443 308.663 198.11C306.991 197.778 305.455 196.957 304.249 195.751C303.044 194.545 302.223 193.009 301.89 191.337C301.557 189.665 301.728 187.931 302.381 186.356C303.033 184.781 304.138 183.435 305.556 182.487C306.973 181.54 308.64 181.034 310.345 181.034C312.631 181.034 314.824 181.943 316.441 183.559C318.057 185.176 318.966 187.369 318.966 189.655Z" fill="#077B9A"/>
<path d="M187.569 224.397C185.352 224.95 183.445 226.362 182.268 228.321C181.091 230.281 180.74 232.627 181.293 234.845L189.914 269.328C190.379 271.193 191.455 272.85 192.97 274.034C194.485 275.218 196.353 275.862 198.276 275.862C198.982 275.861 199.685 275.774 200.371 275.603C202.588 275.05 204.495 273.638 205.672 271.679C206.849 269.719 207.199 267.373 206.647 265.155L198.026 230.672C197.752 229.574 197.264 228.539 196.59 227.629C195.916 226.719 195.069 225.951 194.098 225.368C193.127 224.785 192.05 224.399 190.93 224.233C189.81 224.066 188.668 224.122 187.569 224.397Z" fill="#077B9A"/>
<path d="M181.034 215.517C186.149 215.517 191.15 214 195.403 211.159C199.656 208.317 202.97 204.278 204.928 199.552C206.885 194.827 207.397 189.626 206.4 184.61C205.402 179.593 202.939 174.985 199.322 171.368C195.705 167.751 191.097 165.288 186.08 164.29C181.063 163.292 175.863 163.804 171.137 165.762C166.412 167.719 162.373 171.034 159.531 175.287C156.689 179.54 155.172 184.54 155.172 189.655C155.172 196.514 157.897 203.092 162.747 207.942C167.597 212.793 174.175 215.517 181.034 215.517V215.517ZM181.034 181.035C182.739 181.035 184.406 181.54 185.824 182.487C187.242 183.435 188.346 184.781 188.999 186.356C189.651 187.931 189.822 189.665 189.489 191.337C189.157 193.009 188.336 194.545 187.13 195.751C185.925 196.957 184.389 197.778 182.716 198.11C181.044 198.443 179.311 198.272 177.735 197.62C176.16 196.967 174.814 195.862 173.867 194.445C172.919 193.027 172.414 191.36 172.414 189.655C172.414 187.369 173.322 185.176 174.939 183.559C176.555 181.943 178.748 181.035 181.034 181.035Z" fill="#077B9A"/>
<path d="M267.241 405.172H163.793C159.22 405.172 154.835 406.989 151.602 410.222C148.368 413.456 146.552 417.841 146.552 422.414V439.655C146.552 444.228 148.368 448.613 151.602 451.847C154.835 455.08 159.22 456.897 163.793 456.897H267.241C271.814 456.897 276.2 455.08 279.433 451.847C282.666 448.613 284.483 444.228 284.483 439.655V422.414C284.483 417.841 282.666 413.456 279.433 410.222C276.2 406.989 271.814 405.172 267.241 405.172ZM267.241 439.655H163.793V422.414H267.241V439.655Z" fill="#077B9A"/>
</svg>
